<svg xmlns="http://www.w3.org/2000/svg" style="display: none;">
    <symbol id="icon-plus" viewBox="0 0 60 60">
        <path d="M30 0C13.4585 0 0 13.4573 0 30C0 46.5427 13.4585 60 30 60C46.5415 60 60 46.5427 60 30C60 13.4573 46.5415 0 30 0ZM30 57.6923C14.7312 57.6923 2.30769 45.2688 2.30769 30C2.30769 14.7312 14.7312 2.30769 30 2.30769C45.2688 2.30769 57.6923 14.7312 57.6923 30C57.6923 45.2688 45.2688 57.6923 30 57.6923Z" fill="black"/>
        <path d="M44.4231 28.8462H31.1538V16.1538C31.1538 15.5158 30.6369 15 30 15C29.3631 15 28.8461 15.5158 28.8461 16.1538V28.8462H15.5769C14.94 28.8462 14.4231 29.3619 14.4231 30C14.4231 30.6381 14.94 31.1538 15.5769 31.1538H28.8461V45C28.8461 45.6381 29.3631 46.1538 30 46.1538C30.6369 46.1538 31.1538 45.6381 31.1538 45V31.1538H44.4231C45.06 31.1538 45.5769 30.6381 45.5769 30C45.5769 29.3619 45.06 28.8462 44.4231 28.8462Z" fill="black"/>
    </symbol>

    <symbol id="icon-search" viewBox="0 0 60 60">
        <path d="M58.5704 58.0822L41.7381 40.577C46.0314 36.2712 48.6912 30.3353 48.6912 23.7888C48.6912 10.671 38.0202 0 24.9024 0C11.7845 0 1.11354 10.671 1.11354 23.7888C1.11354 36.9067 11.7845 47.5777 24.9024 47.5777C30.6604 47.5777 35.9449 45.5194 40.0638 42.104L56.9369 59.6522C57.1589 59.8845 57.4557 60 57.7536 60C58.0368 60 58.3189 59.8946 58.5387 59.6839C58.9895 59.2501 59.0031 58.533 58.5704 58.0822ZM24.9024 45.3121C13.034 45.3121 3.37914 35.6572 3.37914 23.7888C3.37914 11.9205 13.034 2.2656 24.9024 2.2656C36.7708 2.2656 46.4256 11.9205 46.4256 23.7888C46.4256 35.6572 36.7696 45.3121 24.9024 45.3121Z" fill="black"/>
    </symbol>

    <symbol id="icon-route" viewBox="0 0 60 60">
        <path d="M15.5556 12.6633C6.97805 12.6633 0 19.6413 0 28.2189C0 32.3091 1.91191 38.2801 4.86984 43.4304C8.24004 49.2979 12.1344 52.6632 15.5556 52.6632C18.9768 52.6632 22.8711 49.2979 26.2413 43.4304C29.1993 38.2801 31.1111 32.3089 31.1111 28.2189C31.1112 19.6413 24.133 12.6633 15.5556 12.6633ZM15.5556 50.4411C10.7282 50.4411 2.22223 37.5945 2.22223 28.2189C2.22223 20.867 8.20313 14.8855 15.5556 14.8855C22.908 14.8855 28.8889 20.867 28.8889 28.2189C28.8888 37.5943 20.383 50.4411 15.5556 50.4411Z" fill="black"/>
        <path d="M15.5556 20.4411C11.2673 20.4411 7.77785 23.9302 7.77785 28.2189C7.77785 32.5076 11.2675 35.9966 15.5556 35.9966C19.8437 35.9966 23.3333 32.5076 23.3333 28.2189C23.3333 23.9302 19.8437 20.4411 15.5556 20.4411ZM15.5556 33.7744C12.4924 33.7744 10.0001 31.2819 10.0001 28.2189C10.0001 25.1557 12.4925 22.6634 15.5556 22.6634C18.6187 22.6634 21.1111 25.1557 21.1111 28.2189C21.1111 31.282 18.6187 33.7744 15.5556 33.7744Z" fill="black"/>
        <path d="M48.8889 1.55215C42.7625 1.55215 37.7777 6.53637 37.7777 12.6633C37.7777 18.2573 44.5301 29.3299 48.8889 29.3299C53.2477 29.3299 60 18.2573 60 12.6633C60 6.53649 55.0152 1.55215 48.8889 1.55215ZM48.8889 27.1077C46.556 27.1077 40 17.9893 40 12.6633C40 7.76204 43.9876 3.77438 48.8889 3.77438C53.7901 3.77438 57.7778 7.76204 57.7778 12.6633C57.7778 17.9893 51.2218 27.1077 48.8889 27.1077Z" fill="black"/>
        <path d="M48.8889 7.10777C45.8257 7.10777 43.3334 9.60012 43.3334 12.6633C43.3334 15.7264 45.8258 18.2188 48.8889 18.2188C51.952 18.2188 54.4444 15.7263 54.4444 12.6633C54.4445 9.60012 51.952 7.10777 48.8889 7.10777ZM48.8889 15.9967C47.0508 15.9967 45.5556 14.5015 45.5556 12.6634C45.5556 10.8253 47.0508 9.33012 48.8889 9.33012C50.727 9.33012 52.2221 10.8253 52.2221 12.6634C52.2223 14.5014 50.727 15.9967 48.8889 15.9967Z" fill="black"/>
        <path d="M40.7118 42.921C39.3728 41.806 38.7565 40.6304 38.8248 39.3267C38.9767 36.4199 42.5769 33.3957 43.9507 32.4762C44.4596 32.1349 44.5973 31.4454 44.2567 30.9354C43.916 30.4248 43.2247 30.2865 42.7169 30.6278C42.4772 30.7873 36.8522 34.5888 36.6059 39.2047C36.4973 41.2295 37.4001 43.0546 39.2882 44.6279C43.4082 48.0616 45.6933 51.5371 45.1085 53.4826C44.6094 55.1412 41.9878 55.7688 39.8774 56.0038C30.3146 57.0677 22.7354 53.896 22.6584 53.8641C22.0931 53.6216 21.442 53.8853 21.2012 54.4489C20.9603 55.0132 21.2208 55.6653 21.7849 55.9068C22.0649 56.0272 27.8201 58.448 35.8334 58.448C37.2016 58.448 38.6382 58.3774 40.1227 58.2119C44.1623 57.7632 46.555 56.3873 47.2364 54.1223C48.4419 50.1117 43.6653 45.383 40.7118 42.921Z" fill="black"/>
    </symbol>


    <symbol id="icon-back" viewBox="0 0 12 12">
        <g clip-path="url(#clip0_12_66)">
            <path d="M18.2559 29.9984L45.3529 2.90145C46.0193 2.23503 46.0193 1.16624 45.3529 0.499817C44.6865 -0.166606 43.6177 -0.166606 42.9513 0.499817L14.6472 28.8039C13.9808 29.4703 13.9808 30.5391 14.6472 31.2055L42.9513 59.497C43.2782 59.824 43.7183 60 44.1458 60C44.5733 60 45.0134 59.8365 45.3403 59.497C46.0068 58.8306 46.0068 57.7618 45.3403 57.0954L18.2559 29.9984Z" fill="black"/>
        </g>
        <defs>
            <clipPath id="clip0_12_66">
                <rect width="60" height="60" fill="white"/>
            </clipPath>
        </defs>
    </symbol>

    <symbol id="icon-label" viewBox="0 0 60 60">
        <path xmlns="http://www.w3.org/2000/svg" d="M29.042 12.915H19.041l-1.185 1.184a18.966 18.966 0 0 0-3.558-2.685a20.794 20.794 0 0 0-2.866-1.389a27.555 27.555 0 0 1-1.554-7.157C9.84 2.396 9.513 2 9.011 2c-.444 0-.908.396-.869.868c.181 2.19.593 4.358 1.241 6.454c-2.119-.63-4.321-1-6.515-1.181C2.396 8.103 2 8.566 2 9.01c0 .503.397.83.868.869c2.468.203 4.931.684 7.253 1.527c.28.705.583 1.401.922 2.082a18.78 18.78 0 0 0 2.403 3.696c.199.237.411.469.633.694l-1.165 1.165v10L42.073 62L62 42.074L29.042 12.915m-14.367 3.04c-.806-.945-1.523-2.145-2.121-3.326c-.038-.076-.071-.155-.108-.231a18.661 18.661 0 0 1 2.672 1.631c.499.366 1.015.813 1.512 1.297l-1.318 1.318a12.166 12.166 0 0 1-.637-.689m.074 12.392V19.8l3.125-3.125c.101.121.208.241.304.362l.022.028l.021.029l.133.181a15.853 15.853 0 0 1 .731 1.106c.094.157.17.324.258.485c-.089.07-.183.133-.264.213a3.093 3.093 0 0 0 0 4.367a3.064 3.064 0 0 0 2.184.905c.825 0 1.601-.321 2.184-.905a3.093 3.093 0 0 0 0-4.368c-.648-.649-1.565-.923-2.454-.85c-.109-.201-.218-.402-.331-.595a15.928 15.928 0 0 0-1.558-2.189l.696-.696h8.548l30.978 27.408l-17.17 17.169l-27.407-30.978m5.43-7.675c.029.085.063.17.091.257c.057.182.114.367.153.554c.227 1.101 1.906.651 1.68-.44a7.7 7.7 0 0 0-.234-.856c.098.055.199.106.281.188c.49.49.49 1.287 0 1.775c-.475.474-1.301.475-1.775 0c-.401-.402-.454-1.002-.196-1.478" fill="currentColor"/>
    </symbol>

    <symbol id="icon-aim" viewBox="0 0 32 32">
        <path xmlns="http://www.w3.org/2000/svg" class="dashing_een" d="M15.5,21.5v-2c0-0.276,0.224-0.5,0.5-0.5s0.5,0.224,0.5,0.5v2c0,0.276-0.224,0.5-0.5,0.5  S15.5,21.776,15.5,21.5z M16,13c0.276,0,0.5-0.224,0.5-0.5v-2c0-0.276-0.224-0.5-0.5-0.5s-0.5,0.224-0.5,0.5v2  C15.5,12.776,15.724,13,16,13z M16,3c0.276,0,0.5-0.224,0.5-0.5v-2C16.5,0.224,16.276,0,16,0c-0.276,0-0.5,0.224-0.5,0.5v2  C15.5,2.776,15.724,3,16,3z M16,32c0.276,0,0.5-0.224,0.5-0.5v-2c0-0.276-0.224-0.5-0.5-0.5s-0.5,0.224-0.5,0.5v2  C15.5,31.776,15.724,32,16,32z M22,16c0-0.276-0.224-0.5-0.5-0.5h-2c-0.276,0-0.5,0.224-0.5,0.5s0.224,0.5,0.5,0.5h2  C21.776,16.5,22,16.276,22,16z M13,16c0-0.276-0.224-0.5-0.5-0.5h-2c-0.276,0-0.5,0.224-0.5,0.5s0.224,0.5,0.5,0.5h2  C12.776,16.5,13,16.276,13,16z M3,16c0-0.276-0.224-0.5-0.5-0.5h-2C0.224,15.5,0,15.724,0,16c0,0.276,0.224,0.5,0.5,0.5h2  C2.776,16.5,3,16.276,3,16z M32,16c0-0.276-0.224-0.5-0.5-0.5h-2c-0.276,0-0.5,0.224-0.5,0.5s0.224,0.5,0.5,0.5h2  C31.776,16.5,32,16.276,32,16z M27,16c0,6.065-4.935,11-11,11S5,22.065,5,16S9.935,5,16,5S27,9.935,27,16z M26,16.5h-1.5  c-0.276,0-0.5-0.224-0.5-0.5s0.224-0.5,0.5-0.5H26c-0.255-5.115-4.387-9.245-9.5-9.5v1.5C16.5,7.776,16.276,8,16,8  s-0.5-0.224-0.5-0.5V6c-5.113,0.255-9.245,4.385-9.5,9.5h1.5C7.776,15.5,8,15.724,8,16s-0.224,0.5-0.5,0.5H6  c0.255,5.115,4.387,9.245,9.5,9.5v-1.5c0-0.276,0.224-0.5,0.5-0.5s0.5,0.224,0.5,0.5V26C21.613,25.745,25.745,21.615,26,16.5z" fill="currentColor"/>
    </symbol>

    <symbol id="icon-geo-add" viewBox="0 0 16 16">
        <path xmlns="http://www.w3.org/2000/svg" fill-rule="evenodd" d="M8 1a3 3 0 1 0 0 6 3 3 0 0 0 0-6zM4 4a4 4 0 1 1 4.5 3.969V13.5a.5.5 0 0 1-1 0V7.97A4 4 0 0 1 4 3.999zm2.493 8.574a.5.5 0 0 1-.411.575c-.712.118-1.28.295-1.655.493a1.319 1.319 0 0 0-.37.265.301.301 0 0 0-.057.09V14l.002.008a.147.147 0 0 0 .016.033.617.617 0 0 0 .145.15c.165.13.435.27.813.395.751.25 1.82.414 3.024.414s2.273-.163 3.024-.414c.378-.126.648-.265.813-.395a.619.619 0 0 0 .146-.15.148.148 0 0 0 .015-.033L12 14v-.004a.301.301 0 0 0-.057-.09 1.318 1.318 0 0 0-.37-.264c-.376-.198-.943-.375-1.655-.493a.5.5 0 1 1 .164-.986c.77.127 1.452.328 1.957.594C12.5 13 13 13.4 13 14c0 .426-.26.752-.544.977-.29.228-.68.413-1.116.558-.878.293-2.059.465-3.34.465-1.281 0-2.462-.172-3.34-.465-.436-.145-.826-.33-1.116-.558C3.26 14.752 3 14.426 3 14c0-.599.5-1 .961-1.243.505-.266 1.187-.467 1.957-.594a.5.5 0 0 1 .575.411z"/>
    </symbol>

    <symbol id="icon-close" viewBox="0 0 24 24">
        <path xmlns="http://www.w3.org/2000/svg" d="M6.34314575 6.34314575L17.6568542 17.6568542M6.34314575 17.6568542L17.6568542 6.34314575"/>
    </symbol>
</svg>
